<?xml version="1.0" encoding="UTF-8" standalone="no"?>
<!-- Created with Inkscape (http://www.inkscape.org/) -->

<svg
   width="300"
   height="320"
   viewBox="0 0 300 320"
   version="1.1"
   id="svg5"
   inkscape:version="1.2.2 (732a01da63, 2022-12-09)"
   sodipodi:docname="parameters-stagger.inkscape.svg"
   xmlns:inkscape="http://www.inkscape.org/namespaces/inkscape"
   xmlns:sodipodi="http://sodipodi.sourceforge.net/DTD/sodipodi-0.dtd"
   xmlns="http://www.w3.org/2000/svg"
   xmlns:svg="http://www.w3.org/2000/svg">
  <sodipodi:namedview
     id="namedview7"
     pagecolor="#ffffff"
     bordercolor="#000000"
     borderopacity="0.25"
     inkscape:showpageshadow="2"
     inkscape:pageopacity="0.0"
     inkscape:pagecheckerboard="0"
     inkscape:deskcolor="#d1d1d1"
     inkscape:document-units="px"
     showgrid="true"
     inkscape:zoom="2.587745"
     inkscape:cx="246.54671"
     inkscape:cy="178.14738"
     inkscape:window-width="3840"
     inkscape:window-height="2054"
     inkscape:window-x="-11"
     inkscape:window-y="-11"
     inkscape:window-maximized="1"
     inkscape:current-layer="layer1">
    <inkscape:grid
       type="xygrid"
       id="grid132"
       spacingx="20"
       spacingy="20"
       empspacing="1"
       originx="0"
       originy="0" />
  </sodipodi:namedview>
  <defs
     id="defs2" />
  <g
     inkscape:label="Layer 1"
     inkscape:groupmode="layer"
     id="layer1">
    <path
       style="fill:#ffffff;fill-opacity:1;stroke:#000000;stroke-width:2;stroke-linecap:round;stroke-linejoin:bevel;stroke-dasharray:none;stroke-opacity:1"
       d="m 221.32517,222.90054 h 40 V 62.900544 h -40 z"
       id="path238-0" />
    <path
       style="fill:#ffffff;fill-opacity:1;stroke:#000000;stroke-width:2;stroke-linecap:round;stroke-linejoin:bevel;stroke-dasharray:none;stroke-opacity:1"
       d="m 181.32517,216.90054 h 40 V 56.900544 h -40 z"
       id="path238" />
    <path
       style="fill:#ffffff;fill-opacity:1;stroke:#000000;stroke-width:2;stroke-linecap:round;stroke-linejoin:bevel;stroke-dasharray:none;stroke-opacity:1"
       d="m 141.32517,204.90054 h 40 V 44.900544 h -40 z"
       id="path238-08" />
    <path
       style="fill:#ffffff;fill-opacity:1;stroke:#000000;stroke-width:2;stroke-linecap:round;stroke-linejoin:bevel;stroke-dasharray:none;stroke-opacity:1"
       d="m 101.32517,216.90054 h 40 V 56.900544 h -40 z"
       id="path238-4" />
    <path
       style="fill:#ffffff;fill-opacity:1;stroke:#000000;stroke-width:2;stroke-linecap:round;stroke-linejoin:bevel;stroke-dasharray:none;stroke-opacity:1"
       d="M 60.973325,238.14531 100.67519,233.27054 81.176095,74.463154 41.474235,79.337924 Z"
       id="path238-3" />
    <path
       style="fill:none;stroke:#000000;stroke-width:2;stroke-linecap:round;stroke-linejoin:bevel;stroke-dasharray:none;stroke-opacity:1"
       d="m 181.32517,176.90054 h 40"
       id="path240" />
    <path
       style="fill:none;stroke:#000000;stroke-width:2;stroke-linecap:round;stroke-linejoin:bevel;stroke-dasharray:none;stroke-opacity:1"
       d="m 181.32517,136.90054 h 40"
       id="path242" />
    <path
       style="fill:none;stroke:#000000;stroke-width:2;stroke-linecap:round;stroke-linejoin:bevel;stroke-dasharray:none;stroke-opacity:1"
       d="m 181.32517,96.900544 h 40"
       id="path244" />
    <path
       style="fill:none;stroke:#000000;stroke-width:2;stroke-linecap:round;stroke-linejoin:bevel;stroke-dasharray:none;stroke-opacity:1"
       d="m 221.32517,182.90054 h 40"
       id="path240-2" />
    <path
       style="fill:none;stroke:#000000;stroke-width:2;stroke-linecap:round;stroke-linejoin:bevel;stroke-dasharray:none;stroke-opacity:1"
       d="m 221.32517,142.90054 h 40"
       id="path242-5" />
    <path
       style="fill:none;stroke:#000000;stroke-width:2;stroke-linecap:round;stroke-linejoin:bevel;stroke-dasharray:none;stroke-opacity:1"
       d="m 221.32517,102.90054 h 40"
       id="path244-4" />
    <path
       style="fill:none;stroke:#000000;stroke-width:2;stroke-linecap:round;stroke-linejoin:bevel;stroke-dasharray:none;stroke-opacity:1"
       d="m 141.32517,164.90054 h 40"
       id="path240-24" />
    <path
       style="fill:none;stroke:#000000;stroke-width:2;stroke-linecap:round;stroke-linejoin:bevel;stroke-dasharray:none;stroke-opacity:1"
       d="m 141.32517,124.90054 h 40"
       id="path242-7" />
    <path
       style="fill:none;stroke:#000000;stroke-width:2;stroke-linecap:round;stroke-linejoin:bevel;stroke-dasharray:none;stroke-opacity:1"
       d="m 141.32517,84.900544 h 40"
       id="path244-3" />
    <path
       style="fill:none;stroke:#000000;stroke-width:2;stroke-linecap:round;stroke-linejoin:bevel;stroke-dasharray:none;stroke-opacity:1"
       d="m 101.32517,176.90054 h 40"
       id="path240-4" />
    <path
       style="fill:none;stroke:#000000;stroke-width:2;stroke-linecap:round;stroke-linejoin:bevel;stroke-dasharray:none;stroke-opacity:1"
       d="m 101.32517,136.90054 h 40"
       id="path242-0" />
    <path
       style="fill:none;stroke:#000000;stroke-width:2;stroke-linecap:round;stroke-linejoin:bevel;stroke-dasharray:none;stroke-opacity:1"
       d="m 101.32517,96.900544 h 40"
       id="path244-38" />
    <path
       style="fill:none;stroke:#000000;stroke-width:2;stroke-linecap:round;stroke-linejoin:bevel;stroke-dasharray:none;stroke-opacity:1"
       d="m 56.098565,198.44347 39.70184,-4.87479"
       id="path240-23" />
    <path
       style="fill:none;stroke:#000000;stroke-width:2;stroke-linecap:round;stroke-linejoin:bevel;stroke-dasharray:none;stroke-opacity:1"
       d="m 51.223805,158.74163 39.70181,-4.87478"
       id="path242-9" />
    <path
       style="fill:none;stroke:#000000;stroke-width:2;stroke-linecap:round;stroke-linejoin:bevel;stroke-dasharray:none;stroke-opacity:1"
       d="M 46.349025,119.03979 86.050865,114.165"
       id="path244-6" />
    <path
       style="fill:none;stroke:#2200e3;stroke-width:1;stroke-linecap:round;stroke-linejoin:bevel;stroke-dasharray:3, 3;stroke-dashoffset:0;stroke-opacity:1"
       d="M 181.32517,44.900544 H 219.2623"
       id="path1137" />
    <path
       id="path6002"
       style="color:#000000;fill:#2200e3;fill-opacity:1;stroke-linejoin:bevel;-inkscape-stroke:none"
       d="m 211.72751,25.89664 v 13.791014 l -0.86914,-0.86718 1.73828,6.08007 1.73633,-6.08007 -0.86719,0.86718 V 25.89664 Z" />
    <path
       id="path6002-3"
       style="color:#000000;fill:#2200e3;fill-opacity:1;stroke-linejoin:bevel;-inkscape-stroke:none"
       d="m 211.72751,75.904444 v -13.79101 l -0.86914,0.86718 1.73828,-6.08007 1.73633,6.08007 -0.86719,-0.86718 v 13.79101 z" />
    <path
       id="path6123"
       style="color:#000000;fill:#e30b00;fill-opacity:1;stroke:none;stroke-linejoin:bevel;stroke-opacity:1;-inkscape-stroke:none"
       d="m 95.241185,55.879064 0.86718,0.87304 c -4.66598,0.0044 -7.87391,0.22343 -11.72656,1.07032 l 0.69727,-1.03126 -5.64453,2.85352 6.30078,0.55859 -1.00196,-0.67968 c 3.72041,-0.82148 6.76409,-1.02508 11.36133,-1.0293 l -0.86719,0.85937 6.087895,-1.71289 z" />
    <path
       style="fill:none;stroke:#e30b00;stroke-width:1;stroke-linecap:round;stroke-linejoin:bevel;stroke-dasharray:2.99999, 2.99999;stroke-dashoffset:0;stroke-opacity:1"
       d="m 81.239505,74.016104 -2.47878,-20.18806"
       id="path1137-7" />
    <path
       style="fill:#848484;fill-opacity:0.417647;stroke:none;stroke-width:0.755906"
       d="m 72.275795,289.39576 c -4.49359,-57.31058 -23.78403,-125.11144 0.81975,-126.78897 12.0231,-0.81976 24.19811,35.12108 30.604255,122.41695 2.07727,-86.25969 -3.64032,-140.00253 18.03463,-142.63761 16.31025,-1.98289 15.98597,39.25532 19.12765,121.05068 4.95525,-81.355 0.56175,-133.06966 19.94741,-133.89353 16.11992,-0.68508 15.48165,33.85981 22.67992,132.80052 1.95434,-84.3838 1.15115,-121.08615 20.76716,-120.77743 18.03619,0.28385 23.70216,30.60736 25.95895,150.83516 13.93219,-57.01209 29.78448,-69.95254 38.8018,-71.3188 9.01732,-1.36626 9.13479,24.0329 7.65106,44.26684 C 275.38662,282.82914 260,320 260,320 H 72.822295 c 0,0 0.25105,-20.43242 -0.5465,-30.60424 z"
       id="path316"
       sodipodi:nodetypes="sscscscscssccs" />
    <path
       style="fill:none;stroke:#2200e3;stroke-width:1;stroke-linecap:round;stroke-linejoin:bevel;stroke-dasharray:3, 3;stroke-dashoffset:0;stroke-opacity:1"
       d="m 101.39253,233.13884 h 37.93713"
       id="path1137-73" />
    <path
       id="path6002-2"
       style="color:#000000;fill:#2200e3;fill-opacity:1;stroke-linejoin:bevel;-inkscape-stroke:none"
       d="m 132.31532,197.89664 v 13.79101 l -0.86914,-0.86718 1.73828,6.08007 1.73633,-6.08007 -0.86719,0.86718 v -13.79101 z" />
    <path
       id="path6002-1"
       style="color:#000000;fill:#2200e3;fill-opacity:1;stroke-linejoin:bevel;-inkscape-stroke:none"
       d="m 132.31532,252.14274 v -13.79101 l -0.86914,0.86718 1.73828,-6.08007 1.73633,6.08007 -0.86719,-0.86718 v 13.79101 z" />
    <text
       xml:space="preserve"
       style="text-align:center;text-anchor:middle;fill:#2200e3;fill-opacity:1;stroke:none;stroke-width:0.755906"
       x="212.45413"
       y="23.248215"
       id="text1076"><tspan
         sodipodi:role="line"
         id="tspan1074"
         x="212.45413"
         y="23.248215">Column stagger</tspan></text>
    <text
       xml:space="preserve"
       style="text-align:center;text-anchor:middle;fill:#e30b00;fill-opacity:1;stroke:none;stroke-width:0.755906"
       x="62.07835"
       y="46.788204"
       id="text1076-4"><tspan
         sodipodi:role="line"
         id="tspan1074-4"
         x="62.07835"
         y="46.788204">Column splay</tspan></text>
    <text
       xml:space="preserve"
       style="text-align:center;text-anchor:middle;fill:#2200e3;fill-opacity:1;stroke:none;stroke-width:0.755906"
       x="132.57739"
       y="265.66315"
       id="text1076-8"><tspan
         sodipodi:role="line"
         id="tspan1074-3"
         x="132.57739"
         y="265.66315">Column stagger</tspan></text>
  </g>
</svg>
