<?xml version="1.0" encoding="UTF-8" standalone="no"?>
<!-- Created with Inkscape (http://www.inkscape.org/) -->

<svg
   width="300"
   height="130"
   viewBox="0 0 300 130"
   version="1.1"
   id="svg5"
   inkscape:version="1.2.2 (732a01da63, 2022-12-09)"
   sodipodi:docname="parameters-col-concavity.inkscape.svg"
   xmlns:inkscape="http://www.inkscape.org/namespaces/inkscape"
   xmlns:sodipodi="http://sodipodi.sourceforge.net/DTD/sodipodi-0.dtd"
   xmlns="http://www.w3.org/2000/svg"
   xmlns:svg="http://www.w3.org/2000/svg">
  <sodipodi:namedview
     id="namedview7"
     pagecolor="#ffffff"
     bordercolor="#000000"
     borderopacity="0.25"
     inkscape:showpageshadow="2"
     inkscape:pageopacity="0.0"
     inkscape:pagecheckerboard="0"
     inkscape:deskcolor="#d1d1d1"
     inkscape:document-units="px"
     showgrid="true"
     inkscape:zoom="3.6596241"
     inkscape:cx="45.633102"
     inkscape:cy="77.193721"
     inkscape:window-width="2555"
     inkscape:window-height="2041"
     inkscape:window-x="0"
     inkscape:window-y="0"
     inkscape:window-maximized="0"
     inkscape:current-layer="layer1">
    <inkscape:grid
       type="xygrid"
       id="grid132"
       spacingx="10"
       spacingy="10"
       empspacing="1"
       originx="0"
       originy="0" />
  </sodipodi:namedview>
  <defs
     id="defs2" />
  <g
     inkscape:label="Layer 1"
     inkscape:groupmode="layer"
     id="layer1">
    <path
       style="fill:#ffffff;fill-opacity:1;stroke:#000000;stroke-width:2;stroke-linecap:round;stroke-linejoin:bevel;stroke-dasharray:none;stroke-opacity:1"
       d="m 31.497751,11.298256 7.504022,12.84286 56.332107,26.71026 56.33211,13.35514 56.3321,-13.35514 56.33211,-26.71026 -7.50403,-12.84286 -56.33211,26.71027 -56.3321,13.35513 -56.332113,-13.35513 z"
       id="path238-0"
       sodipodi:nodetypes="ccccccccccc" />
    <path
       style="fill:none;stroke:#000000;stroke-width:2;stroke-linecap:round;stroke-linejoin:bevel;stroke-dasharray:none;stroke-opacity:1"
       d="m 200.49406,38.008526 7.50403,12.84285"
       id="path240-2"
       sodipodi:nodetypes="cc" />
    <path
       style="fill:none;stroke:#000000;stroke-width:2;stroke-linecap:round;stroke-linejoin:bevel;stroke-dasharray:none;stroke-opacity:1"
       d="m 144.16196,51.363656 7.50403,12.84286"
       id="path242-5"
       sodipodi:nodetypes="cc" />
    <path
       style="fill:none;stroke:#000000;stroke-width:2;stroke-linecap:round;stroke-linejoin:bevel;stroke-dasharray:none;stroke-opacity:1"
       d="m 87.829847,38.008526 7.504033,12.84285"
       id="path244-4"
       sodipodi:nodetypes="cc" />
    <path
       style="fill:none;stroke:#2200e3;stroke-width:1;stroke-linecap:round;stroke-linejoin:bevel;stroke-dasharray:3, 3;stroke-dashoffset:0;stroke-opacity:1"
       d="m 95.33388,50.851376 56.33211,26.71026"
       id="path1137"
       sodipodi:nodetypes="cc" />
    <path
       style="fill:#848484;fill-opacity:0.417647;stroke:none;stroke-width:0.755906"
       d="m 351.66963,301.3753 c -4.49359,-57.31058 -23.78403,-125.11144 0.81975,-126.78897 12.0231,-0.81976 24.19811,35.12108 30.60426,122.41695 2.07727,-86.25969 -3.64032,-140.00253 18.03463,-142.63761 16.31025,-1.98289 15.98597,39.25532 19.12765,121.05068 4.95525,-81.355 0.56175,-133.06966 19.94741,-133.89353 16.11992,-0.68508 15.48165,33.85981 22.67992,132.80052 1.95434,-84.3838 1.15115,-121.08615 20.76716,-120.77743 18.03619,0.28385 23.70216,30.60736 25.95895,150.83516 13.93219,-57.01209 29.78448,-69.95254 38.8018,-71.3188 9.01732,-1.36626 9.13479,24.0329 7.65106,44.26684 -1.28176,17.47957 -16.66838,54.65043 -16.66838,54.65043 H 352.21613 c 0,0 0.25105,-20.43242 -0.5465,-30.60424 z"
       id="path316"
       sodipodi:nodetypes="sscscscscssccs" />
    <path
       style="fill:none;stroke:#2200e3;stroke-width:1;stroke-linecap:round;stroke-linejoin:bevel;stroke-dasharray:3, 3;stroke-dashoffset:0;stroke-opacity:1"
       d="m 151.66599,64.206516 56.33211,13.35514"
       id="path1137-73"
       sodipodi:nodetypes="cc" />
    <text
       xml:space="preserve"
       style="text-align:center;text-anchor:middle;fill:#2200e3;fill-opacity:1;stroke:none;stroke-width:0.755906"
       x="156.77609"
       y="116.64828"
       id="text1076"><tspan
         sodipodi:role="line"
         id="tspan1074"
         x="156.77609"
         y="116.64828">Column concavity</tspan></text>
    <path
       id="path3960"
       style="color:#000000;fill:#2200e3;fill-opacity:1;stroke-linejoin:bevel;-inkscape-stroke:none"
       d="m 199.92539,75.447256 -4.14764,5.98277 1.26184,-0.62063 c -1.72956,4.87577 -3.47713,8.10622 -7.27559,13.13294 l 1.59664,1.20711 c 3.88166,-5.13683 5.786,-8.67348 7.57436,-13.71136 l 0.62873,1.28024 z" />
    <path
       id="path3960-5"
       style="color:#000000;fill:#2200e3;fill-opacity:1;stroke-linejoin:bevel;-inkscape-stroke:none"
       d="m 199.59372,52.880046 -4.17001,-5.967196 1.26416,0.615902 c -1.7478,-4.869267 -3.50745,-8.093149 -7.32471,-13.105612 l 1.59211,-1.213083 c 3.90086,5.12227 5.81843,8.651761 7.62564,13.682909 l 0.62394,-1.282585 z"
       inkscape:transform-center-x="-42.68689"
       inkscape:transform-center-y="-21.271663" />
    <path
       id="path3960-9"
       style="color:#000000;fill:#2200e3;fill-opacity:1;stroke-linejoin:bevel;-inkscape-stroke:none"
       d="m 139.96161,71.989136 -5.35033,4.93664 1.36666,-0.33115 c -2.74929,4.38246 -5.15805,7.15512 -9.95949,11.23463 l 1.29564,1.52568 c 4.90661,-4.16888 7.53503,-7.20628 10.37698,-11.73416 l 0.33504,1.38638 z"
       inkscape:transform-center-x="-37.455054"
       inkscape:transform-center-y="29.573891" />
    <path
       id="path3960-5-6"
       style="color:#000000;fill:#2200e3;fill-opacity:1;stroke-linejoin:bevel;-inkscape-stroke:none"
       d="m 143.27625,62.262946 -0.98826,-7.21246 0.84392,1.12481 c 0.66625,-5.13037 0.57125,-8.801983 -0.5387,-15.00394 l 1.97021,-0.353094 c 1.13424,6.337807 1.23033,10.353434 0.5431,15.654944 l 1.14038,-0.85664 z"
       inkscape:transform-center-x="-48.732469"
       inkscape:transform-center-y="0.442459" />
  </g>
</svg>
